<svg xmlns="http://www.w3.org/2000/svg" height="48" viewBox="0 -960 960 960" width="48"><path d="M775.696-101.043 517-359.174 586.261-429l258.696 258.13-69.261 69.827Zm-595.392-1-69.261-69.261L407.739-468 301.521-573.652l-23.869 23.304-38.522-38.522v79.652l-26.695 27.261-135.61-136.174 26.696-26.696h80.652l-42.521-43.521L280.13-827.391q19-19 41.13-25.5 22.131-6.5 48.696-6.5 24.87 0 48 9.282 23.131 9.283 41.261 27.718L348.348-711.522l48.739 47.739-24.87 24.304L476-535.696l121.435-120.869q-7-12-11.283-29.283-4.282-17.282-4.282-35.717 0-55 41.13-96.913t97.13-41.913q17.131 0 29.914 4.13 12.782 4.131 22.478 10.696l-86.609 87.174 70.478 70.478 87.044-87.609q6.695 9.131 11.826 24.261 5.13 15.131 5.13 31.696 0 56.565-42.195 97.13Q776-581.87 720.435-581.87q-17.435 0-29.935-1.717t-22.935-6.283L180.304-102.043Z"/></svg>