<svg xmlns="http://www.w3.org/2000/svg" height="48" viewBox="0 -960 960 960" width="48"><path d="M478.971-262q75.588 0 125.808-49.64Q655-361.279 655-436.294q0-74.265-50.162-124.985Q554.676-612 479.588-612T354.75-561.598Q305-511.196 305-436.765q0 75.265 49.608 125.015T478.971-262Zm.275-77Q438-339 410-366.908q-28-27.909-28-70Q382-479 410.049-507.5q28.05-28.5 69.5-28.5Q521-536 550-507.887q29 28.112 29 70.5Q579-395 550.346-367q-28.653 28-71.1 28ZM150-99q-37.175 0-64.088-26.912Q59-152.825 59-190v-493q0-37.225 26.912-64.613Q112.825-775 150-775h126l82-87h245l83 87h124q37.225 0 64.613 27.387Q902-720.225 902-683v493q0 37.175-27.387 64.088Q847.225-99 810-99H150Zm0-91h660v-493H647l-80-87H396l-84 87H150v493Zm330-247Z"/></svg>